<svg viewBox="0 0 454 563" fill="none" xmlns="http://www.w3.org/2000/svg">
<path d="M222.336 563C177.765 563 138.636 554.446 104.949 537.339C71.7797 519.712 45.8664 493.273 27.2089 458.021C9.06964 422.768 0 378.185 0 324.269V238.731C0 184.815 9.06964 140.232 27.2089 104.979C45.8664 69.727 71.7797 43.5469 104.949 26.4392C138.636 8.81307 177.765 0 222.336 0H232.442C277.531 0 316.66 8.81307 349.829 26.4392C382.998 43.5469 408.652 69.727 426.791 104.979C444.93 140.232 454 184.815 454 238.731V324.269C454 378.185 444.93 422.768 426.791 458.021C408.652 493.273 382.998 519.712 349.829 537.339C316.66 554.446 277.531 563 232.442 563H222.336ZM223.89 512.454H231.664C284.527 512.454 325.729 497.42 355.271 467.352C385.33 436.766 400.36 389.071 400.36 324.269V238.731C400.36 173.929 385.33 126.494 355.271 96.4254C325.729 65.8389 284.527 50.5456 231.664 50.5456H223.89C170.509 50.5456 128.789 65.8389 98.7294 96.4254C69.1884 126.494 54.4178 173.929 54.4178 238.731V324.269C54.4178 389.071 69.1884 436.766 98.7294 467.352C128.789 497.42 170.509 512.454 223.89 512.454Z" fill="url(#paint0_linear_90_25)"/>
<path d="M165.909 386.422C181.573 402.141 202.72 410 229.35 410C256.371 410 276.734 402.141 290.441 386.422C304.147 370.703 311 350.269 311 325.119V313.92H270.469V326.298C270.469 342.017 266.748 353.609 259.308 361.076C252.259 368.542 242.077 372.275 228.762 372.275C216.622 372.275 206.049 368.346 197.042 360.486C188.035 352.627 183.531 341.034 183.531 325.709V239.649C183.531 223.537 187.839 211.356 196.455 203.103C205.07 194.458 215.839 190.135 228.762 190.135C244.035 190.135 254.804 194.458 261.07 203.103C267.336 211.748 270.469 222.359 270.469 234.933V249.67H311V238.47C311 213.32 303.951 192.886 289.853 177.167C275.755 161.056 255.196 153 228.175 153C203.112 153 182.552 161.056 166.497 177.167C150.832 193.279 143 217.054 143 248.491V316.867C143 347.518 150.636 370.703 165.909 386.422Z" fill="#EAEBED"/>
<defs>
<linearGradient id="paint0_linear_90_25" x1="388.29" y1="54.1008" x2="76.6548" y2="504.059" gradientUnits="userSpaceOnUse">
<stop stop-color="#F06A5B"/>
<stop offset="1" stop-color="#FED0AB"/>
</linearGradient>
</defs>
</svg>
