<svg viewBox="0 0 850 894" fill="none" xmlns="http://www.w3.org/2000/svg">
<mask id="path-1-inside-1_911_96" fill="white">
<path d="M461.8 361.317C466.88 363.056 472.33 364 478 364C505.614 364 528 341.614 528 314C528 286.386 505.614 264 478 264C472.335 264 466.891 264.942 461.814 266.678C459.429 267.412 456.97 268.391 454.451 269.611C428.402 282.221 414 269.61 414 257V204C414 181.909 396.091 164 374 164H321C308.389 164 295.778 149.598 308.389 123.549C309.606 121.034 310.584 118.581 311.317 116.2C313.056 111.12 314 105.67 314 99.9999C314 72.3857 291.614 49.9999 264 49.9999C236.386 49.9999 214 72.3857 214 99.9999C214 105.665 214.942 111.109 216.678 116.186C217.412 118.571 218.391 121.029 219.611 123.549C232.221 149.598 219.61 164 207 164H154C131.909 164 114 181.909 114 204L114 257C114 269.61 99.5983 282.221 73.5492 269.611C71.0347 268.393 68.5812 267.416 66.2003 266.682C61.1198 264.943 55.67 263.999 50 263.999C22.3857 263.999 1.20706e-06 286.385 0 313.999C-1.20706e-06 341.614 22.3857 363.999 50 363.999C55.6648 363.999 61.1095 363.057 66.186 361.321C68.5714 360.588 71.0297 359.609 73.5492 358.389C99.5983 345.778 114 358.389 114 370.999L114 424C114 446.091 131.909 464 154 464H210.892C210.267 457.4 208.14 449.835 204.035 441.356C202.388 437.952 201.065 434.631 200.074 431.409C197.729 424.551 196.456 417.196 196.456 409.544C196.456 372.24 226.697 342 264 342C301.303 342 331.544 372.24 331.544 409.544C331.544 417.203 330.269 424.565 327.92 431.428C326.929 434.645 325.608 437.959 323.964 441.356C319.859 449.835 317.733 457.4 317.107 464H374C396.091 464 414 446.091 414 424V370.999C414 358.389 428.402 345.778 454.451 358.389C456.965 359.606 459.419 360.584 461.8 361.317Z"/>
<path d="M671.826 430.589C672.86 435.859 674.768 441.05 677.603 445.96C691.41 469.875 721.989 478.069 745.904 464.262C769.819 450.455 778.012 419.875 764.205 395.96C761.373 391.055 757.835 386.81 753.793 383.282C751.965 381.583 749.888 379.944 747.572 378.372C723.626 362.118 727.347 343.34 738.267 337.035L784.167 310.535C803.298 299.489 809.853 275.025 798.808 255.894L772.308 209.994C766.002 199.073 772.169 180.951 801.034 178.847C803.82 178.644 806.433 178.264 808.862 177.709C814.132 176.675 819.323 174.767 824.233 171.932C848.148 158.125 856.342 127.546 842.535 103.631C828.728 79.7163 798.148 71.5226 774.233 85.3297C769.328 88.1621 765.083 91.7003 761.555 95.7419C759.856 97.5701 758.217 99.6471 756.645 101.963C740.391 125.909 721.613 122.188 715.308 111.268L688.808 65.3682C677.762 46.2365 653.298 39.6815 634.167 50.7272L588.267 77.2272C577.347 83.5324 559.224 77.3655 557.121 48.5011C556.918 45.7148 556.538 43.1012 555.982 40.6726C554.948 35.4032 553.041 30.2117 550.206 25.3013C536.398 1.38667 505.819 -6.80707 481.904 7.00006C457.99 20.8072 449.796 51.3867 463.603 75.3013C466.435 80.2072 469.974 84.4514 474.015 87.9799C475.844 89.6787 477.921 91.3181 480.237 92.8902C504.182 109.144 500.462 127.922 489.541 134.227L443.641 160.727C424.51 171.773 417.954 196.236 429 215.368L457.446 264.638C462.849 260.797 468.338 255.172 473.628 247.378C475.752 244.249 477.967 241.444 480.261 238.974C485.028 233.514 490.761 228.734 497.389 224.908C529.694 206.257 571.004 217.325 589.655 249.631C608.307 281.937 597.238 323.246 564.932 341.898C558.299 345.727 551.286 348.304 544.168 349.701C540.887 350.451 537.356 350.965 533.593 351.239C524.197 351.924 516.582 353.865 510.554 356.623L539 405.894C550.046 425.025 574.51 431.58 593.641 420.535L639.541 394.035C650.462 387.729 668.584 393.896 670.688 422.761C670.891 425.547 671.271 428.161 671.826 430.589Z"/>
<path d="M311.317 432.2C313.056 427.12 314 421.67 314 416C314 388.386 291.614 366 264 366C236.386 366 214 388.386 214 416C214 421.665 214.942 427.109 216.678 432.186C217.412 434.571 218.391 437.03 219.611 439.549C232.221 465.598 219.61 480 207 480H154C131.909 480 114 497.909 114 520V573C114 585.611 99.5983 598.222 73.5491 585.611C71.0346 584.394 68.5812 583.416 66.2003 582.683C61.1197 580.944 55.6701 580 50 580C22.3858 580 2.96363e-05 602.386 2.96363e-05 630C2.96363e-05 657.614 22.3858 680 50 680C55.6647 680 61.1094 679.058 66.1861 677.322C68.5713 676.588 71.0296 675.609 73.5491 674.389C99.5983 661.779 114 674.39 114 687V740C114 762.091 131.909 780 154 780H207C219.61 780 232.221 794.402 219.611 820.451C218.393 822.965 217.416 825.419 216.682 827.8C214.943 832.88 214 838.33 214 844C214 871.614 236.385 894 264 894C291.614 894 314 871.614 314 844C314 838.335 313.057 832.891 311.322 827.814C310.588 825.429 309.609 822.97 308.389 820.451C295.778 794.402 308.389 780 321 780H374C396.091 780 414 762.091 414 740V683.108C407.4 683.733 399.835 685.86 391.356 689.965C387.952 691.612 384.632 692.935 381.409 693.926C374.551 696.271 367.196 697.544 359.544 697.544C322.24 697.544 292 667.303 292 630C292 592.697 322.24 562.456 359.544 562.456C367.203 562.456 374.565 563.731 381.429 566.08C384.645 567.071 387.959 568.392 391.356 570.036C399.835 574.141 407.4 576.267 414 576.892V520C414 497.909 396.091 480 374 480H321C308.389 480 295.778 465.598 308.389 439.549C309.606 437.035 310.584 434.581 311.317 432.2Z"/>
<path d="M378.2 582.683C373.12 580.944 367.67 580 362 580C334.386 580 312 602.386 312 630C312 657.614 334.386 680 362 680C367.665 680 373.109 679.058 378.186 677.322C380.571 676.588 383.03 675.609 385.549 674.389C411.598 661.779 426 674.39 426 687V740C426 762.091 443.909 780 466 780H519.001C531.611 780 544.222 794.402 531.611 820.451C530.394 822.965 529.416 825.419 528.683 827.8C526.944 832.88 526 838.33 526 844C526 871.614 548.386 894 576 894C603.614 894 626 871.614 626 844C626 838.335 625.058 832.891 623.322 827.814C622.588 825.429 621.609 822.97 620.389 820.451C607.779 794.402 620.39 780 633 780H686C708.091 780 726 762.091 726 740V687C726 674.39 740.402 661.779 766.451 674.389C768.965 675.607 771.419 676.584 773.8 677.318C778.88 679.057 784.33 680 790 680C817.614 680 840 657.615 840 630C840 602.386 817.614 580 790 580C784.335 580 778.891 580.943 773.814 582.678C771.429 583.412 768.97 584.391 766.451 585.611C740.402 598.222 726 585.611 726 573V520C726 497.909 708.091 480 686 480H629.108C629.733 486.6 631.86 494.165 635.965 502.644C637.612 506.048 638.935 509.368 639.926 512.591C642.271 519.449 643.544 526.804 643.544 534.456C643.544 571.76 613.303 602 576 602C538.697 602 508.456 571.76 508.456 534.456C508.456 526.797 509.731 519.435 512.08 512.571C513.071 509.355 514.392 506.041 516.036 502.644C520.141 494.165 522.267 486.6 522.893 480H466C443.909 480 426 497.909 426 520V573C426 585.611 411.598 598.222 385.549 585.611C383.035 584.394 380.581 583.416 378.2 582.683Z"/>
</mask>
<path d="M461.8 361.317C466.88 363.056 472.33 364 478 364C505.614 364 528 341.614 528 314C528 286.386 505.614 264 478 264C472.335 264 466.891 264.942 461.814 266.678C459.429 267.412 456.97 268.391 454.451 269.611C428.402 282.221 414 269.61 414 257V204C414 181.909 396.091 164 374 164H321C308.389 164 295.778 149.598 308.389 123.549C309.606 121.034 310.584 118.581 311.317 116.2C313.056 111.12 314 105.67 314 99.9999C314 72.3857 291.614 49.9999 264 49.9999C236.386 49.9999 214 72.3857 214 99.9999C214 105.665 214.942 111.109 216.678 116.186C217.412 118.571 218.391 121.029 219.611 123.549C232.221 149.598 219.61 164 207 164H154C131.909 164 114 181.909 114 204L114 257C114 269.61 99.5983 282.221 73.5492 269.611C71.0347 268.393 68.5812 267.416 66.2003 266.682C61.1198 264.943 55.67 263.999 50 263.999C22.3857 263.999 1.20706e-06 286.385 0 313.999C-1.20706e-06 341.614 22.3857 363.999 50 363.999C55.6648 363.999 61.1095 363.057 66.186 361.321C68.5714 360.588 71.0297 359.609 73.5492 358.389C99.5983 345.778 114 358.389 114 370.999L114 424C114 446.091 131.909 464 154 464H210.892C210.267 457.4 208.14 449.835 204.035 441.356C202.388 437.952 201.065 434.631 200.074 431.409C197.729 424.551 196.456 417.196 196.456 409.544C196.456 372.24 226.697 342 264 342C301.303 342 331.544 372.24 331.544 409.544C331.544 417.203 330.269 424.565 327.92 431.428C326.929 434.645 325.608 437.959 323.964 441.356C319.859 449.835 317.733 457.4 317.107 464H374C396.091 464 414 446.091 414 424V370.999C414 358.389 428.402 345.778 454.451 358.389C456.965 359.606 459.419 360.584 461.8 361.317Z" stroke="#EAEBED" stroke-width="12" mask="url(#path-1-inside-1_911_96)"/>
<path d="M671.826 430.589C672.86 435.859 674.768 441.05 677.603 445.96C691.41 469.875 721.989 478.069 745.904 464.262C769.819 450.455 778.012 419.875 764.205 395.96C761.373 391.055 757.835 386.81 753.793 383.282C751.965 381.583 749.888 379.944 747.572 378.372C723.626 362.118 727.347 343.34 738.267 337.035L784.167 310.535C803.298 299.489 809.853 275.025 798.808 255.894L772.308 209.994C766.002 199.073 772.169 180.951 801.034 178.847C803.82 178.644 806.433 178.264 808.862 177.709C814.132 176.675 819.323 174.767 824.233 171.932C848.148 158.125 856.342 127.546 842.535 103.631C828.728 79.7163 798.148 71.5226 774.233 85.3297C769.328 88.1621 765.083 91.7003 761.555 95.7419C759.856 97.5701 758.217 99.6471 756.645 101.963C740.391 125.909 721.613 122.188 715.308 111.268L688.808 65.3682C677.762 46.2365 653.298 39.6815 634.167 50.7272L588.267 77.2272C577.347 83.5324 559.224 77.3655 557.121 48.5011C556.918 45.7148 556.538 43.1012 555.982 40.6726C554.948 35.4032 553.041 30.2117 550.206 25.3013C536.398 1.38667 505.819 -6.80707 481.904 7.00006C457.99 20.8072 449.796 51.3867 463.603 75.3013C466.435 80.2072 469.974 84.4514 474.015 87.9799C475.844 89.6787 477.921 91.3181 480.237 92.8902C504.182 109.144 500.462 127.922 489.541 134.227L443.641 160.727C424.51 171.773 417.954 196.236 429 215.368L457.446 264.638C462.849 260.797 468.338 255.172 473.628 247.378C475.752 244.249 477.967 241.444 480.261 238.974C485.028 233.514 490.761 228.734 497.389 224.908C529.694 206.257 571.004 217.325 589.655 249.631C608.307 281.937 597.238 323.246 564.932 341.898C558.299 345.727 551.286 348.304 544.168 349.701C540.887 350.451 537.356 350.965 533.593 351.239C524.197 351.924 516.582 353.865 510.554 356.623L539 405.894C550.046 425.025 574.51 431.58 593.641 420.535L639.541 394.035C650.462 387.729 668.584 393.896 670.688 422.761C670.891 425.547 671.271 428.161 671.826 430.589Z" stroke="#EAEBED" stroke-width="12" mask="url(#path-1-inside-1_911_96)"/>
<path d="M311.317 432.2C313.056 427.12 314 421.67 314 416C314 388.386 291.614 366 264 366C236.386 366 214 388.386 214 416C214 421.665 214.942 427.109 216.678 432.186C217.412 434.571 218.391 437.03 219.611 439.549C232.221 465.598 219.61 480 207 480H154C131.909 480 114 497.909 114 520V573C114 585.611 99.5983 598.222 73.5491 585.611C71.0346 584.394 68.5812 583.416 66.2003 582.683C61.1197 580.944 55.6701 580 50 580C22.3858 580 2.96363e-05 602.386 2.96363e-05 630C2.96363e-05 657.614 22.3858 680 50 680C55.6647 680 61.1094 679.058 66.1861 677.322C68.5713 676.588 71.0296 675.609 73.5491 674.389C99.5983 661.779 114 674.39 114 687V740C114 762.091 131.909 780 154 780H207C219.61 780 232.221 794.402 219.611 820.451C218.393 822.965 217.416 825.419 216.682 827.8C214.943 832.88 214 838.33 214 844C214 871.614 236.385 894 264 894C291.614 894 314 871.614 314 844C314 838.335 313.057 832.891 311.322 827.814C310.588 825.429 309.609 822.97 308.389 820.451C295.778 794.402 308.389 780 321 780H374C396.091 780 414 762.091 414 740V683.108C407.4 683.733 399.835 685.86 391.356 689.965C387.952 691.612 384.632 692.935 381.409 693.926C374.551 696.271 367.196 697.544 359.544 697.544C322.24 697.544 292 667.303 292 630C292 592.697 322.24 562.456 359.544 562.456C367.203 562.456 374.565 563.731 381.429 566.08C384.645 567.071 387.959 568.392 391.356 570.036C399.835 574.141 407.4 576.267 414 576.892V520C414 497.909 396.091 480 374 480H321C308.389 480 295.778 465.598 308.389 439.549C309.606 437.035 310.584 434.581 311.317 432.2Z" stroke="#EAEBED" stroke-width="12" mask="url(#path-1-inside-1_911_96)"/>
<path d="M378.2 582.683C373.12 580.944 367.67 580 362 580C334.386 580 312 602.386 312 630C312 657.614 334.386 680 362 680C367.665 680 373.109 679.058 378.186 677.322C380.571 676.588 383.03 675.609 385.549 674.389C411.598 661.779 426 674.39 426 687V740C426 762.091 443.909 780 466 780H519.001C531.611 780 544.222 794.402 531.611 820.451C530.394 822.965 529.416 825.419 528.683 827.8C526.944 832.88 526 838.33 526 844C526 871.614 548.386 894 576 894C603.614 894 626 871.614 626 844C626 838.335 625.058 832.891 623.322 827.814C622.588 825.429 621.609 822.97 620.389 820.451C607.779 794.402 620.39 780 633 780H686C708.091 780 726 762.091 726 740V687C726 674.39 740.402 661.779 766.451 674.389C768.965 675.607 771.419 676.584 773.8 677.318C778.88 679.057 784.33 680 790 680C817.614 680 840 657.615 840 630C840 602.386 817.614 580 790 580C784.335 580 778.891 580.943 773.814 582.678C771.429 583.412 768.97 584.391 766.451 585.611C740.402 598.222 726 585.611 726 573V520C726 497.909 708.091 480 686 480H629.108C629.733 486.6 631.86 494.165 635.965 502.644C637.612 506.048 638.935 509.368 639.926 512.591C642.271 519.449 643.544 526.804 643.544 534.456C643.544 571.76 613.303 602 576 602C538.697 602 508.456 571.76 508.456 534.456C508.456 526.797 509.731 519.435 512.08 512.571C513.071 509.355 514.392 506.041 516.036 502.644C520.141 494.165 522.267 486.6 522.893 480H466C443.909 480 426 497.909 426 520V573C426 585.611 411.598 598.222 385.549 585.611C383.035 584.394 380.581 583.416 378.2 582.683Z" stroke="#EAEBED" stroke-width="12" mask="url(#path-1-inside-1_911_96)"/>
</svg>
